<svg width="18" height="19" viewBox="0 0 18 19" fill="none" xmlns="http://www.w3.org/2000/svg">
<path fill-rule="evenodd" clip-rule="evenodd" d="M5.14838 8.52904H13.9742C15.1928 8.52904 16.1807 9.55923 16.1807 10.83V14.665C16.1807 15.9358 15.1928 16.966 13.9742 16.966H3.67741C2.45881 16.966 1.47095 15.9358 1.47095 14.665V10.83C1.47095 9.55923 2.45881 8.52904 3.67741 8.52904V6.99504C3.66797 4.37182 5.47763 2.12557 7.95702 1.68292C10.4364 1.24027 12.8595 2.73084 13.6874 5.20794C13.8198 5.60603 13.6195 6.04097 13.2387 6.18203C13.0535 6.25313 12.8487 6.24363 12.6702 6.15564C12.4918 6.06765 12.3548 5.90857 12.29 5.71416C11.6898 3.95746 9.96486 2.90563 8.20249 3.22172C6.44012 3.53781 5.15126 5.13018 5.14838 6.99504V8.52904ZM13.9742 15.432C14.3804 15.432 14.7097 15.0886 14.7097 14.665V10.83C14.7097 10.4064 14.3804 10.063 13.9742 10.063H3.67741C3.27121 10.063 2.94192 10.4064 2.94192 10.83V14.665C2.94192 15.0886 3.27121 15.432 3.67741 15.432H13.9742Z" fill="#231F20"/>
</svg>
