<svg width="9" height="15" viewBox="0 0 9 15" fill="none" xmlns="http://www.w3.org/2000/svg">
<path d="M7 1.375C7.23207 1.375 7.45463 1.46719 7.61872 1.63128C7.78281 1.79538 7.875 2.01794 7.875 2.25V12.75C7.875 12.9821 7.78281 13.2046 7.61872 13.3687C7.45463 13.5328 7.23207 13.625 7 13.625H1.75C1.51794 13.625 1.29538 13.5328 1.13128 13.3687C0.967188 13.2046 0.875 12.9821 0.875 12.75V2.25C0.875 2.01794 0.967188 1.79538 1.13128 1.63128C1.29538 1.46719 1.51794 1.375 1.75 1.375H7ZM1.75 0.5C1.28587 0.5 0.840752 0.684374 0.512563 1.01256C0.184374 1.34075 0 1.78587 0 2.25V12.75C0 13.2141 0.184374 13.6592 0.512563 13.9874C0.840752 14.3156 1.28587 14.5 1.75 14.5H7C7.46413 14.5 7.90925 14.3156 8.23744 13.9874C8.56563 13.6592 8.75 13.2141 8.75 12.75V2.25C8.75 1.78587 8.56563 1.34075 8.23744 1.01256C7.90925 0.684374 7.46413 0.5 7 0.5H1.75Z" fill="#6F6F6F"/>
<path d="M4.375 12.75C4.60706 12.75 4.82962 12.6578 4.99372 12.4937C5.15781 12.3296 5.25 12.1071 5.25 11.875C5.25 11.6429 5.15781 11.4204 4.99372 11.2563C4.82962 11.0922 4.60706 11 4.375 11C4.14294 11 3.92038 11.0922 3.75628 11.2563C3.59219 11.4204 3.5 11.6429 3.5 11.875C3.5 12.1071 3.59219 12.3296 3.75628 12.4937C3.92038 12.6578 4.14294 12.75 4.375 12.75Z" fill="#6F6F6F"/>
</svg>
